<?xml version="1.0" encoding="UTF-8"?>
<svg version="1.1" xmlns="http://www.w3.org/2000/svg" width="1024" height="1024">
<path d="M0 0 C337.92 0 675.84 0 1024 0 C1024 337.92 1024 675.84 1024 1024 C686.08 1024 348.16 1024 0 1024 C0 686.08 0 348.16 0 0 Z " fill="#FDFDFD" transform="translate(0,0)"/>
<path d="M0 0 C2.7980957 1.40771484 2.7980957 1.40771484 5.67578125 3.2109375 C6.7423999 3.87319336 7.80901855 4.53544922 8.90795898 5.21777344 C10.04299803 5.93654579 11.17784093 6.65562796 12.3125 7.375 C13.4879142 8.11041773 14.66378081 8.84511285 15.84008789 9.57910156 C23.58740434 14.42531147 31.27836464 19.35924115 38.9296875 24.35546875 C48.4508978 30.56363407 58.10109908 36.57700151 67.75073242 42.58300781 C84.73453563 53.15778693 101.54073643 64.01632725 118.30078125 74.94140625 C121.52210644 77.04074973 124.7489434 79.13123527 127.98046875 81.21484375 C129.16962891 81.98187622 129.16962891 81.98187622 130.3828125 82.7644043 C131.88346513 83.73172117 133.38473619 84.69807952 134.88671875 85.66333008 C139.8898126 88.8898126 139.8898126 88.8898126 141 90 C141.09685318 92.08827321 141.12186882 94.17988362 141.12025452 96.270401 C141.12153615 97.26398586 141.12153615 97.26398586 141.12284368 98.27764314 C141.12450033 100.5133287 141.11897414 102.74894042 141.11352539 104.98461914 C141.11324353 106.58080544 141.11340123 108.17699187 141.1139679 109.7731781 C141.11425592 114.12009895 141.10835835 118.46699244 141.10139394 122.81390691 C141.09516128 127.35163947 141.09455667 131.88937259 141.09336853 136.42710876 C141.09025495 145.0260784 141.08204122 153.62503539 141.07201904 162.22399944 C141.06085872 172.01101728 141.05534766 181.79803571 141.05032361 191.58505833 C141.03985862 211.72338086 141.02151282 231.86168604 141 252 C128.13 252 115.26 252 102 252 C102.07444336 247.91794189 102.14888672 243.83588379 102.22558594 239.63012695 C102.45733921 226.11565115 102.57922481 212.60203478 102.64509201 199.08581257 C102.68767949 190.89331155 102.76729176 182.70438185 102.93603516 174.51342773 C103.08313111 167.36859574 103.15875718 160.22706685 103.15080285 153.08066529 C103.14903263 149.29942313 103.18149704 145.52588183 103.29979706 141.74633217 C104.33808874 126.28777206 104.33808874 126.28777206 99.03894997 112.4802475 C94.34356303 108.28090067 89.13486141 105.52721345 83.37454033 103.05832577 C80.11789578 101.6068487 77.33159418 99.76139424 74.38671875 97.7578125 C72.48732815 96.54632768 70.58759214 95.33538422 68.6875 94.125 C60.5075574 88.90512185 52.36428325 83.63379346 44.25 78.3125 C36.08581503 72.96306834 27.85213985 67.74409362 19.52636719 62.6496582 C12.27366572 58.20659541 5.16249293 53.60445974 -2 49 C-2.33 157.57 -2.66 266.14 -3 378 C13.5 378 30 378 47 378 C55.81203772 393.42106602 64.50789873 408.89652898 73.12353516 424.42749023 C76.33529387 430.21535861 79.55564463 435.99808808 82.796875 441.76953125 C83.40893799 442.85951416 84.02100098 443.94949707 84.65161133 445.07250977 C85.79325515 447.10374617 86.93619474 449.1342552 88.08081055 451.16381836 C92.51312776 459.05016982 96.73913639 467.01088073 101 475 C101.33 438.37 101.66 401.74 102 364 C99.36 363.34 96.72 362.68 94 362 C91.2084793 361.00255161 88.55392586 359.76754651 85.875 358.5 C85.14434326 358.15541748 84.41368652 357.81083496 83.66088867 357.45581055 C60.04312141 345.90951734 41.80689273 325.6598791 33.23339844 300.77490234 C29.80134131 290.1508994 27.82984466 280.37849796 27.875 269.1875 C27.87113281 268.24068359 27.86726563 267.29386719 27.86328125 266.31835938 C27.89969726 239.86212503 38.96995142 217.62626742 56.9375 198.6875 C74.34274194 182 74.34274194 182 81 182 C81 210.05 81 238.1 81 267 C82.98 267.66 84.96 268.32 87 269 C89.04118175 270.08428816 91.05213937 271.22673448 93.03515625 272.4140625 C93.59512802 272.74739594 94.15509979 273.08072937 94.73204041 273.42416382 C96.51214541 274.48572281 98.28729476 275.55527223 100.0625 276.625 C101.22560593 277.31952233 102.38901549 278.01353646 103.55273438 278.70703125 C104.7136325 279.40088971 105.87443989 280.09490002 107.03515625 280.7890625 C107.60875885 281.13108704 108.18236145 281.47311157 108.77334595 281.82550049 C111.75115752 283.61106903 114.69042332 285.43741873 117.59326172 287.34277344 C118.17522812 287.71880707 118.75719452 288.0948407 119.35679626 288.48226929 C120.96423826 289.52474505 122.56144907 290.58294794 124.15795898 291.64208984 C127.44525874 293.21274196 128.61694556 293.19408088 132 292 C133.93627634 291.15614437 133.93627634 291.15614437 135.7578125 290.06640625 C136.45672607 289.66953613 137.15563965 289.27266602 137.87573242 288.86376953 C138.61799072 288.43435059 139.36024902 288.00493164 140.125 287.5625 C141.72677309 286.65302288 143.32967743 285.7455358 144.93359375 284.83984375 C145.7622998 284.37175293 146.59100586 283.90366211 147.44482422 283.42138672 C152.4254719 280.65076463 157.48548933 278.03037062 162.54150391 275.40063477 C163.2844873 275.01319092 164.0274707 274.62574707 164.79296875 274.2265625 C165.4377417 273.89221191 166.08251465 273.55786133 166.74682617 273.21337891 C167.49037354 272.81296387 168.2339209 272.41254883 169 272 C170.18318817 271.48905792 171.36637634 270.97811584 172.5854187 270.45169067 C174.48828801 269.43372723 174.48828801 269.43372723 176 268 C176.7312935 264.85463254 176.94885464 262.71140055 176.88647461 259.55957031 C176.89725037 258.71042557 176.90802612 257.86128082 176.91912842 256.98640442 C176.94651352 254.18276148 176.92464408 251.38177653 176.90234375 248.578125 C176.91172682 246.63326344 176.92418336 244.68841447 176.93959045 242.74359131 C176.97186014 237.62725699 176.96235809 232.51181762 176.94421387 227.39544678 C176.93306817 222.17368721 176.9613475 216.95215836 176.98632812 211.73046875 C177.02951365 201.48681933 177.02858032 191.24368294 177 181 C198.45733966 189.31808585 215.42209636 209.68617066 225 230 C227.37742905 235.5461039 229.30149929 241.21308643 231 247 C231.26683594 247.90492188 231.53367187 248.80984375 231.80859375 249.7421875 C237.15146258 272.80864189 231.46000184 296.41068705 221 317 C220.443125 318.11246094 219.88625 319.22492188 219.3125 320.37109375 C214.99104034 328.35956125 209.29914741 334.56045554 203 341 C202.36964844 341.680625 201.73929688 342.36125 201.08984375 343.0625 C196.03105414 348.42027245 190.01138194 353.0287416 183.38687474 356.2841323 C180.80796762 357.7578687 180.80796762 357.7578687 180.37719816 360.28699893 C180.37822729 361.19285198 180.37925642 362.09870503 180.38031673 363.03200817 C180.36934489 364.0780664 180.35837305 365.12412463 180.34706873 366.20188159 C180.36047046 367.35497059 180.3738722 368.5080596 180.38768005 369.6960907 C180.37937993 371.52906738 180.37937993 371.52906738 180.37091213 373.3990739 C180.36048238 376.79783332 180.37250046 380.19519905 180.39376509 383.59382141 C180.41121912 387.25655388 180.3998364 390.9192058 180.39175415 394.58195496 C180.38153638 400.93186708 180.38917426 407.28155674 180.40841484 413.63144493 C180.4358837 422.8210604 180.43207878 432.01046007 180.41982902 441.20009885 C180.40042086 456.12031957 180.40038616 471.04046933 180.4152832 485.96069336 C180.41616934 486.8540828 180.41705547 487.74747225 180.41796846 488.6679341 C180.42160223 492.28752604 180.42531961 495.90711788 180.42913502 499.52670963 C180.43958901 509.48028873 180.44783987 519.43386872 180.4543457 529.38745117 C180.45493394 530.27823845 180.45552217 531.16902573 180.45612823 532.08680656 C180.46541066 546.94435985 180.45892737 561.8018707 180.44203526 576.6594165 C180.43244627 585.82414924 180.43760019 594.98865396 180.46180297 604.153361 C180.47756313 610.43609072 180.47937681 616.71872336 180.47026973 623.00146594 C180.46554523 626.62579827 180.46743836 630.24981753 180.48690605 633.87410736 C180.50791582 637.80585975 180.4980399 641.73719553 180.4853363 645.66899109 C180.49650732 646.81092649 180.50767834 647.95286188 180.51918787 649.12940139 C180.45447273 657.32390539 178.84048308 662.56152049 173.625 668.875 C168.25165913 673.22484737 162.71476053 673.29031115 156.11058807 673.25726891 C155.22244315 673.26077498 154.33429823 673.26428105 153.41923982 673.26789337 C150.4340128 673.27722008 147.44898032 673.27228075 144.46374512 673.26742554 C142.30557073 673.27116113 140.1473977 673.27576229 137.98922682 673.28115618 C132.05132803 673.2934124 126.11348548 673.29312263 120.17557693 673.29076743 C113.77468096 673.29035994 107.37380318 673.30139184 100.97291565 673.31088257 C88.43064414 673.32750703 75.88839202 673.33301863 63.34611046 673.33410732 C53.15513031 673.33502615 42.96415627 673.33914147 32.7731781 673.34550858 C29.84053724 673.34730363 26.90789636 673.34908326 23.97525549 673.35085833 C23.24621524 673.35130043 22.51717499 673.35174252 21.76604262 673.35219802 C1.25932491 673.36450659 -19.24739068 673.37239911 -39.75411224 673.37151146 C-40.52730075 673.3714803 -41.30048926 673.37144914 -42.09710773 673.37141704 C-46.01603027 673.37125083 -49.9349528 673.37105274 -53.85387534 673.37084763 C-54.63220156 673.37080774 -55.41052778 673.37076785 -56.21243965 673.37072675 C-57.78640385 673.37064587 -59.36036806 673.37056228 -60.93433226 673.37047596 C-85.43199392 673.36924999 -109.92960026 673.38427213 -134.42724609 673.41162109 C-161.94325527 673.442327 -189.45922809 673.45955456 -216.97525549 673.45769465 C-219.90789636 673.45754538 -222.84053723 673.45744797 -225.7731781 673.45738602 C-226.49528226 673.45736271 -227.21738642 673.4573394 -227.96137253 673.45731538 C-239.59209102 673.45725379 -251.22276155 673.47003629 -262.85346578 673.48725055 C-274.53662737 673.50418517 -286.2197029 673.505854 -297.90287173 673.4930319 C-304.23470342 673.4864812 -310.56636085 673.48646084 -316.89817619 673.5037384 C-322.69018168 673.51938094 -328.48187346 673.51669614 -334.27387089 673.49917014 C-336.373382 673.49608076 -338.47291603 673.49980483 -340.57240015 673.51089029 C-343.41884674 673.52492887 -346.26418033 673.51449007 -349.11058807 673.49777794 C-349.93218357 673.5077143 -350.75377907 673.51765066 -351.6002714 673.52788812 C-356.86144287 673.46225246 -359.80921292 672.45266198 -364 669 C-369.74698221 662.47639857 -369.3468538 656.85852112 -369.45996094 648.50683594 C-369.48653238 647.00911416 -369.52742079 645.51157417 -369.58300781 644.01464844 C-369.66249002 641.84756128 -369.69531668 639.68395937 -369.71875 637.515625 C-369.74904297 636.21915039 -369.77933594 634.92267578 -369.81054688 633.58691406 C-368.85186188 629.3444442 -367.76542246 627.92717788 -364.46710968 625.23620224 C-359.10996994 622.55188374 -352.90826488 623.40024444 -347.0625 623.625 C-345.69732448 623.65513919 -344.33208483 623.68250806 -342.96679688 623.70703125 C-339.64288435 623.77750289 -336.32227494 623.87599893 -333 624 C-333.00645525 623.37747018 -333.01291049 622.75494037 -333.01956135 622.11354601 C-333.4001199 585.20435451 -333.69173474 548.29545351 -333.8681106 511.38470129 C-333.88937221 506.95128844 -333.91137573 502.51787957 -333.93383789 498.08447266 C-333.93829717 497.20187379 -333.94275645 496.31927492 -333.94735085 495.40993063 C-334.02129307 481.12504428 -334.15531054 466.84132282 -334.31159753 452.55712719 C-334.4706648 437.89637075 -334.5650172 423.23622363 -334.59950441 408.57463968 C-334.62281476 399.52929582 -334.69637435 390.48724416 -334.83457994 381.44291417 C-334.92455979 375.23783044 -334.95157903 369.03444408 -334.92952342 362.82875557 C-334.9186461 359.24864016 -334.93509395 355.67426555 -335.02649307 352.0951767 C-335.53394481 331.20845295 -335.53394481 331.20845295 -331.34192348 325.90056181 C-327.35653751 322.49988185 -322.98830393 320.49933631 -318.07857597 318.77350116 C-315.0292478 317.63875367 -312.39818133 316.05285963 -309.609375 314.3828125 C-307.65718147 313.29520138 -305.70405329 312.20926623 -303.75 311.125 C-295.82858423 306.71031942 -287.92824964 302.26313504 -280.0625 297.75 C-272.36987609 293.33940875 -264.64043744 289.00202532 -256.8828125 284.70703125 C-250.95498082 281.42417365 -245.03927739 278.11969951 -239.125 274.8125 C-238.1030957 274.24225098 -237.08119141 273.67200195 -236.02832031 273.08447266 C-235.03155273 272.52679199 -234.03478516 271.96911133 -233.0078125 271.39453125 C-231.53103027 270.57202881 -231.53103027 270.57202881 -230.02441406 269.73291016 C-227.90992178 268.52136138 -225.81952692 267.26721309 -223.74902344 265.98193359 C-222.69489258 265.3317627 -221.64076172 264.6815918 -220.5546875 264.01171875 C-219.60835449 263.41190186 -218.66202148 262.81208496 -217.68701172 262.1940918 C-214.50156388 260.77849799 -213.26159382 260.90730672 -210 262 C-207.89794922 262.87280273 -207.89794922 262.87280273 -205.8046875 263.93359375 C-205.00417969 264.33642578 -204.20367187 264.73925781 -203.37890625 265.15429688 C-202.55261719 265.57775391 -201.72632813 266.00121094 -200.875 266.4375 C-200.10285156 266.82615234 -199.33070313 267.21480469 -198.53515625 267.61523438 C-192.3618241 270.74078758 -186.24313256 273.97022415 -180.12158203 277.19555664 C-179.24268814 277.65839302 -178.36379425 278.1212294 -177.45826721 278.59809113 C-175.30540246 279.73185398 -173.15264974 280.86582898 -171 282 C-171.02212303 281.05431089 -171.04424606 280.10862179 -171.06703949 279.13427544 C-171.60077018 256.08127768 -171.99464141 233.02908397 -172.24349213 209.97120476 C-172.36705157 198.81987306 -172.5353416 187.67263103 -172.81054688 176.52392578 C-173.05042403 166.80171201 -173.20473996 157.08245927 -173.25812387 147.35736859 C-173.28932172 142.21006834 -173.36208284 137.07123444 -173.53752136 131.92666245 C-174.56060274 100.72545822 -174.56060274 100.72545822 -168.71813965 92.97162628 C-163.16908787 88.15394755 -157.06839663 85.51608125 -150.16375351 83.1894865 C-144.84019843 81.18797251 -140.1317107 78.17311152 -135.3125 75.1875 C-134.2203418 74.55062256 -133.12818359 73.91374512 -132.00292969 73.25756836 C-112.00865829 61.58931929 -92.03011426 49.89225866 -72.10546875 38.10546875 C-70.32031747 37.04947076 -68.53516106 35.99348145 -66.75 34.9375 C-65.84209717 34.40036377 -64.93419434 33.86322754 -63.9987793 33.30981445 C-58.62318161 30.13234125 -53.24096827 26.96647425 -47.8515625 23.8125 C-47.23918228 23.45393417 -46.62680206 23.09536835 -45.99586487 22.72593689 C-42.88274063 20.90347697 -39.76816911 19.08356681 -36.65112305 17.26782227 C-31.0282591 13.98702978 -25.43381193 10.67427356 -19.91796875 7.21484375 C-19.00418457 6.64644775 -18.09040039 6.07805176 -17.14892578 5.49243164 C-15.47799591 4.44750901 -13.81547128 3.38896758 -12.16357422 2.31420898 C-11.43025879 1.85731689 -10.69694336 1.4004248 -9.94140625 0.9296875 C-9.00856812 0.33003174 -9.00856812 0.33003174 -8.05688477 -0.28173828 C-5.04166544 -1.33464929 -3.06436659 -0.80965514 0 0 Z " fill="#173F5C" transform="translate(581,143)"/>
<path d="M0 0 C21.45733966 8.31808585 38.42209636 28.68617066 48 49 C50.37742905 54.5461039 52.30149929 60.21308643 54 66 C54.26683594 66.90492188 54.53367187 67.80984375 54.80859375 68.7421875 C60.15146258 91.80864189 54.46000184 115.41068705 44 136 C43.443125 137.11246094 42.88625 138.22492188 42.3125 139.37109375 C37.99104034 147.35956125 32.29914741 153.56045554 26 160 C25.36964844 160.680625 24.73929688 161.36125 24.08984375 162.0625 C19.20514091 167.23589687 13.13309957 172.50472493 6.38809681 174.9449358 C3.85591111 176.71347855 3.85591111 176.71347855 3.53583944 179.01913679 C3.34786734 181.84298979 3.33132955 184.62901876 3.36076355 187.45915222 C3.35240787 188.54794042 3.3440522 189.63672863 3.33544332 190.75851041 C3.31340701 194.42550923 3.32715373 198.09151681 3.34057617 201.75854492 C3.33212882 204.37965154 3.32148743 207.00075187 3.30880737 209.62184143 C3.28493902 215.27438783 3.27936566 220.92671616 3.28615379 226.57930565 C3.29594193 234.75198939 3.27823894 242.92443083 3.25378648 251.09707538 C3.21486435 264.35598201 3.19823203 277.61481947 3.19555664 290.8737793 C3.19290988 303.75500042 3.17974585 316.63614027 3.15258789 329.51733398 C3.15091037 330.3191858 3.14923286 331.12103761 3.14750451 331.94718796 C3.13430335 338.21802641 3.12049141 344.48886348 3.10648644 350.75970018 C3.03797461 381.50648305 3.02274639 412.25308343 3 443 C-57.39 443 -117.78 443 -180 443 C-180 361.82 -180 280.64 -180 197 C-163.5 197 -147 197 -130 197 C-121.18796228 212.42106602 -112.49210127 227.89652898 -103.87646484 243.42749023 C-100.66470613 249.21535861 -97.44435537 254.99808808 -94.203125 260.76953125 C-93.59106201 261.85951416 -92.97899902 262.94949707 -92.34838867 264.07250977 C-91.20674485 266.10374617 -90.06380526 268.1342552 -88.91918945 270.16381836 C-84.48687224 278.05016982 -80.26086361 286.01088073 -76 294 C-75.67 257.37 -75.34 220.74 -75 183 C-77.64 182.34 -80.28 181.68 -83 181 C-85.7915207 180.00255161 -88.44607414 178.76754651 -91.125 177.5 C-91.85565674 177.15541748 -92.58631348 176.81083496 -93.33911133 176.45581055 C-116.95687859 164.90951734 -135.19310727 144.6598791 -143.76660156 119.77490234 C-147.19865869 109.1508994 -149.17015534 99.37849796 -149.125 88.1875 C-149.13080078 86.76727539 -149.13080078 86.76727539 -149.13671875 85.31835938 C-149.10030274 58.86212503 -138.03004858 36.62626742 -120.0625 17.6875 C-102.65725806 1 -102.65725806 1 -96 1 C-96 29.05 -96 57.1 -96 86 C-94.02 86.66 -92.04 87.32 -90 88 C-87.95881825 89.08428816 -85.94786063 90.22673448 -83.96484375 91.4140625 C-83.40487198 91.74739594 -82.84490021 92.08072937 -82.26795959 92.42416382 C-80.48785459 93.48572281 -78.71270524 94.55527223 -76.9375 95.625 C-75.77439407 96.31952233 -74.61098451 97.01353646 -73.44726562 97.70703125 C-72.2863675 98.40088971 -71.12556011 99.09490002 -69.96484375 99.7890625 C-69.39124115 100.13108704 -68.81763855 100.47311157 -68.22665405 100.82550049 C-65.24884248 102.61106903 -62.30957668 104.43741873 -59.40673828 106.34277344 C-58.53378868 106.90682388 -58.53378868 106.90682388 -57.64320374 107.48226929 C-56.03576174 108.52474505 -54.43855093 109.58294794 -52.84204102 110.64208984 C-49.55474126 112.21274196 -48.38305444 112.19408088 -45 111 C-43.06372366 110.15614437 -43.06372366 110.15614437 -41.2421875 109.06640625 C-40.54327393 108.66953613 -39.84436035 108.27266602 -39.12426758 107.86376953 C-38.01088013 107.21964111 -38.01088013 107.21964111 -36.875 106.5625 C-35.27322691 105.65302288 -33.67032257 104.7455358 -32.06640625 103.83984375 C-30.82334717 103.13770752 -30.82334717 103.13770752 -29.55517578 102.42138672 C-24.5745281 99.65076463 -19.51451067 97.03037062 -14.45849609 94.40063477 C-13.7155127 94.01319092 -12.9725293 93.62574707 -12.20703125 93.2265625 C-11.5622583 92.89221191 -10.91748535 92.55786133 -10.25317383 92.21337891 C-9.50962646 91.81296387 -8.7660791 91.41254883 -8 91 C-6.81681183 90.48905792 -5.63362366 89.97811584 -4.4145813 89.45169067 C-2.51171199 88.43372723 -2.51171199 88.43372723 -1 87 C-0.2687065 83.85463254 -0.05114536 81.71140055 -0.11352539 78.55957031 C-0.10274963 77.71042557 -0.09197388 76.86128082 -0.08087158 75.98640442 C-0.05348648 73.18276148 -0.07535592 70.38177653 -0.09765625 67.578125 C-0.08827318 65.63326344 -0.07581664 63.68841447 -0.06040955 61.74359131 C-0.02813986 56.62725699 -0.03764191 51.51181762 -0.05578613 46.39544678 C-0.06693183 41.17368721 -0.0386525 35.95215836 -0.01367188 30.73046875 C0.02951365 20.48681933 0.02858032 10.24368294 0 0 Z " fill="#FA7B12" transform="translate(758,324)"/>
<path d="M0 0 C4.80422304 1.60140768 8.74733257 3.37408311 13.0625 5.875 C13.75093994 6.26792236 14.43937988 6.66084473 15.14868164 7.06567383 C17.43536744 8.372098 19.71771109 9.68591191 22 11 C25.31132486 12.89788848 28.62442869 14.79266229 31.9375 16.6875 C32.81301514 17.18886475 33.68853027 17.69022949 34.59057617 18.20678711 C42.55134243 22.75936145 50.55084093 27.24124347 58.5559082 31.71533203 C65.58886868 35.64696168 72.61188138 39.59558654 79.625 43.5625 C80.55352783 44.08755127 81.48205566 44.61260254 82.4387207 45.15356445 C87.40786143 47.96457 92.37461013 50.77975546 97.33984375 53.59765625 C98.38124512 54.18796631 99.42264648 54.77827637 100.49560547 55.38647461 C102.48624566 56.5149055 104.47619617 57.64455423 106.46533203 58.77563477 C107.36493652 59.28537842 108.26454102 59.79512207 109.19140625 60.3203125 C109.97717041 60.76648926 110.76293457 61.21266602 111.57250977 61.67236328 C114.34311121 63.1876535 117.17548775 64.58774388 120 66 C120 146.19 120 226.38 120 309 C80.4 309 40.8 309 0 309 C0 207.03 0 105.06 0 0 Z " fill="#F8F9F9" transform="translate(377,458)"/>
<path d="M0 0 C4.2128532 0.24781489 6.55259727 0.67376884 10 3.1875 C12 6 12 6 12.375 8.9375 C9.53504627 15.26285149 2.73430376 17.86609907 -3.375 20.5 C-23.95278482 28.01367879 -47.09682012 31.38101901 -68.8125 33.9375 C-69.50119171 34.01926483 -70.18988342 34.10102966 -70.89944458 34.18527222 C-115.21925627 39.42299432 -159.79502177 42.73435392 -204.4140625 43.7890625 C-208.66098673 43.8903475 -212.90057421 44.03481247 -217.14404297 44.23413086 C-233.7199058 45.01010605 -250.28258239 45.28622417 -266.875 45.3125 C-267.59761017 45.31394516 -268.32022034 45.31539032 -269.06472778 45.31687927 C-321.24245947 45.40028747 -373.66200356 42.95764891 -425.57302856 37.64433289 C-433.53976518 36.82942664 -441.51885492 36.19782043 -449.50439453 35.59521484 C-452.84151091 35.330997 -455.81062885 35.06312372 -459 34 C-460.5444736 33.80953681 -462.09376772 33.65698716 -463.64453125 33.52734375 C-477.55448339 32.22429832 -491.08819241 29.98428498 -504.75 27.125 C-505.95494614 26.87784744 -505.95494614 26.87784744 -507.18423462 26.6257019 C-535.42608326 20.796679 -535.42608326 20.796679 -543 13 C-542.67 12.34 -542.34 11.68 -542 11 C-541.03345013 11.73082037 -541.03345013 11.73082037 -540.04737401 12.47640479 C-536.08761914 14.45616295 -532.56817845 14.41442662 -528.24201584 14.37752342 C-527.35592355 14.38188374 -526.46983126 14.38624407 -525.55688769 14.39073652 C-522.57250032 14.40172937 -519.58857141 14.39125185 -516.60418701 14.38095093 C-514.44901296 14.38440591 -512.29384068 14.38916939 -510.13867211 14.39513266 C-504.20427347 14.40769458 -498.27001895 14.40144863 -492.33561969 14.39217401 C-485.9401009 14.38540492 -479.54460744 14.39585421 -473.14909363 14.40411377 C-461.33940118 14.41670414 -449.5297602 14.41558276 -437.72006522 14.40737936 C-426.80832884 14.39983686 -415.89660936 14.39786063 -404.98487091 14.4014473 C-403.89975659 14.40179103 -403.89975659 14.40179103 -402.79272077 14.40214171 C-399.85622505 14.40307571 -396.91972934 14.40403091 -393.98323364 14.405021 C-366.42422233 14.41420228 -338.86524038 14.40587153 -311.3062336 14.38973031 C-286.82214129 14.37549906 -262.3380958 14.37676182 -237.85400391 14.39111328 C-210.35188874 14.40717985 -182.84979954 14.41354515 -155.34768033 14.40427649 C-152.41525094 14.40331433 -149.48282155 14.40237581 -146.55039215 14.4014473 C-145.82834376 14.40121006 -145.10629537 14.40097283 -144.36236672 14.40072841 C-133.46030797 14.3973165 -122.558268 14.40130601 -111.65621185 14.40888596 C-99.25650023 14.41746415 -86.85685174 14.41502994 -74.4571456 14.39904372 C-68.12903132 14.39115448 -61.80101208 14.38808058 -55.47289848 14.39799118 C-49.68073674 14.40692522 -43.88875819 14.40202625 -38.09661308 14.38605852 C-36.00038662 14.38270521 -33.90414471 14.38441712 -31.80792817 14.39168589 C-28.9588483 14.40080794 -26.11039591 14.39145175 -23.26134872 14.37752342 C-22.04034827 14.38805867 -22.04034827 14.38805867 -20.79468113 14.39880675 C-15.33303872 14.34543854 -9.83543839 13.71852519 -5 11 C-3.75685618 9.06276827 -3.75685618 9.06276827 -3 7 C-2.57847656 6.04867187 -2.57847656 6.04867187 -2.1484375 5.078125 C-1.89320313 4.47484375 -1.63796875 3.8715625 -1.375 3.25 C-0.694375 1.64125 -0.694375 1.64125 0 0 Z " fill="#E2E2E2" transform="translate(760,801)"/>
<path d="M0 0 C0.33 0 0.66 0 1 0 C1.1953125 2.01822917 1.390625 4.03645833 1.5859375 6.0546875 C1.86374749 8.22668245 1.86374749 8.22668245 4 10 C7.08255903 30.6376032 1.23735264 50.81733164 -8 69 C-8.556875 70.11246094 -9.11375 71.22492188 -9.6875 72.37109375 C-14.00895966 80.35956125 -19.70085259 86.56045554 -26 93 C-26.63035156 93.680625 -27.26070312 94.36125 -27.91015625 95.0625 C-32.79485909 100.23589687 -38.86690043 105.50472493 -45.61190319 107.9449358 C-48.14408889 109.71347855 -48.14408889 109.71347855 -48.46416056 112.01913679 C-48.65213266 114.84298979 -48.66867045 117.62901876 -48.63923645 120.45915222 C-48.64759213 121.54794042 -48.6559478 122.63672863 -48.66455668 123.75851041 C-48.68659299 127.42550923 -48.67284627 131.09151681 -48.65942383 134.75854492 C-48.66787118 137.37965154 -48.67851257 140.00075187 -48.69119263 142.62184143 C-48.71506098 148.27438783 -48.72063434 153.92671616 -48.71384621 159.57930565 C-48.70405807 167.75198939 -48.72176106 175.92443083 -48.74621352 184.09707538 C-48.78513565 197.35598201 -48.80176797 210.61481947 -48.80444336 223.8737793 C-48.80709012 236.75500029 -48.82019696 249.63614045 -48.84741211 262.51733398 C-48.84908549 263.31108664 -48.85075887 264.10483929 -48.85248295 264.92264505 C-48.86094231 268.90459649 -48.86960774 272.88654744 -48.87837565 276.86849821 C-48.95086853 309.91232442 -48.98684242 342.95609632 -49 376 C-53.29 376 -57.58 376 -62 376 C-62.20527391 341.19625638 -62.36456609 306.39266816 -62.45958797 271.58844992 C-62.47084445 267.48035233 -62.48249333 263.37225595 -62.49438477 259.26416016 C-62.49674556 258.44630557 -62.49910635 257.62845099 -62.50153869 256.78581293 C-62.54071032 243.53976707 -62.61167642 230.29407243 -62.69437516 217.04823498 C-62.77851269 203.4586988 -62.82852331 189.86934666 -62.84679645 176.27956069 C-62.85915144 167.8923904 -62.89818271 159.50621275 -62.9712482 151.119348 C-63.01879032 145.36961667 -63.0332086 139.62039913 -63.0215124 133.87048547 C-63.01574171 130.55157866 -63.02954162 127.23477529 -63.07284927 123.91609573 C-63.11751884 120.31721299 -63.10691255 116.72260467 -63.08229065 113.12362671 C-63.10850622 112.07498392 -63.1347218 111.02634114 -63.16173178 109.9459213 C-63.03336502 103.02309113 -63.03336502 103.02309113 -60.05801952 100.07732701 C-57.76538117 98.53641994 -55.45459939 97.26180943 -53 96 C-34.43545293 83.43533399 -18.00734407 65.4202578 -9.9375 44.39453125 C-9.18033596 42.46060809 -8.32352816 40.5658797 -7.4375 38.6875 C-3.6933609 29.08296925 -2.61856924 19.58166601 -2.37841797 9.36035156 C-2.34385498 8.18811035 -2.34385498 8.18811035 -2.30859375 6.9921875 C-2.29626709 6.29464355 -2.28394043 5.59709961 -2.27124023 4.87841797 C-2 3 -2 3 0 0 Z " fill="#E5610F" transform="translate(810,391)"/>
<path d="M0 0 C3.09965818 1.54982909 3.8858241 4.60595087 5.3125 7.625 C8.68629943 14.56774455 12.3579515 21.29886068 16.1875 28 C20.8327945 36.13401932 25.37272327 44.3144218 29.8125 52.5625 C33.7928157 59.95166509 37.82765003 67.2916078 42.02734375 74.55859375 C44.90370013 79.57655408 47.70129607 84.63755938 50.50073242 89.69873047 C50.89752197 90.41561035 51.29431152 91.13249023 51.703125 91.87109375 C52.05020508 92.49943115 52.39728516 93.12776855 52.75488281 93.77514648 C54.48234878 96.86189106 56.24503302 99.92880778 58 103 C58 109.27 58 115.54 58 122 C38.86 122 19.72 122 0 122 C0 81.74 0 41.48 0 0 Z " fill="#FBF9F7" transform="translate(628,645)"/>
<path d="M0 0 C1.96993637 1.18323231 1.96993637 1.18323231 4 3 C4.49219131 5.30569744 4.49219131 5.30569744 4.48101807 8.06828308 C4.48651672 9.11576218 4.49201538 10.16324127 4.49768066 11.24246216 C4.48329956 12.39116791 4.46891846 13.53987366 4.45410156 14.72338867 C4.45468567 15.9332695 4.45526978 17.14315033 4.45587158 18.38969421 C4.4535605 21.70798204 4.43348728 25.0252772 4.40557575 28.34338927 C4.38058802 31.81070904 4.3782222 35.27804171 4.37347412 38.74543762 C4.36103653 45.31158581 4.32820461 51.87746794 4.28807616 58.44349891 C4.24338259 65.91860026 4.22137754 73.39371424 4.20129442 80.86891592 C4.15947242 96.24610229 4.08830074 111.62300641 4 127 C-3.26 127 -10.52 127 -18 127 C-18.73672149 18.94751517 -18.73672149 18.94751517 -5 5 C-4.50628906 4.47792969 -4.01257813 3.95585938 -3.50390625 3.41796875 C-2.36639606 2.24823447 -1.188151 1.11825977 0 0 Z " fill="#E75705" transform="translate(624,640)"/>
<path d="M0 0 C0 19.14 0 38.28 0 58 C-5.23875 60.145 -10.4775 62.29 -15.875 64.5 C-17.52741699 65.17869141 -19.17983398 65.85738281 -20.88232422 66.55664062 C-22.18966572 67.09012056 -23.49711294 67.62334155 -24.8046875 68.15625 C-25.48539307 68.43694336 -26.16609863 68.71763672 -26.86743164 69.00683594 C-31.7718564 71 -31.7718564 71 -34 71 C-34 52.19 -34 33.38 -34 14 C-25.42 10.37 -16.84 6.74 -8 3 C-2 0 -2 0 0 0 Z " fill="#FAFBFC" transform="translate(323,507)"/>
<path d="M0 0 C0 18.48 0 36.96 0 56 C-7.53723993 59.76861997 -14.82532928 63.31467118 -22.625 66.375 C-23.50800781 66.72949219 -24.39101563 67.08398438 -25.30078125 67.44921875 C-31.73190154 70 -31.73190154 70 -34 70 C-34 51.52 -34 33.04 -34 14 C-4.25 0 -4.25 0 0 0 Z " fill="#FAFBFB" transform="translate(323,613)"/>
<path d="M0 0 C3.99915911 1.50638255 7.70437732 3.35876404 11.47265625 5.37109375 C12.07758408 5.69408951 12.6825119 6.01708527 13.30577087 6.34986877 C14.57800719 7.03018539 15.8495263 7.71184475 17.12036133 8.39477539 C19.05772282 9.43493515 20.99841198 10.46867967 22.93945312 11.50195312 C24.17989386 12.1662815 25.42013508 12.83098256 26.66015625 13.49609375 C27.78043213 14.09607178 28.90070801 14.6960498 30.05493164 15.31420898 C34.92002297 18.09904324 34.92002297 18.09904324 37 20 C37.48101807 22.14506531 37.48101807 22.14506531 37.45410156 24.6550293 C37.45379944 25.59577805 37.45349731 26.53652679 37.45318604 27.50578308 C37.43254089 28.51836685 37.41189575 29.53095062 37.390625 30.57421875 C37.38496521 31.61318802 37.37930542 32.65215729 37.37347412 33.72261047 C37.35106327 37.04470681 37.3008569 40.36572904 37.25 43.6875 C37.22994115 45.93813548 37.21168931 48.18878784 37.1953125 50.43945312 C37.1511832 55.9600026 37.08422421 61.47992457 37 67 C32.49623387 65.62978749 28.53537473 63.82629261 24.39453125 61.59375 C23.7886467 61.26838257 23.18276215 60.94301514 22.55851746 60.60778809 C21.28757453 59.92416965 20.01783809 59.23830383 18.74926758 58.55029297 C16.81005801 57.49867573 14.86731669 56.45384074 12.92382812 55.41015625 C3.49845228 50.33230152 3.49845228 50.33230152 0 48 C-0.36076355 45.93722534 -0.36076355 45.93722534 -0.34057617 43.36669922 C-0.34034958 42.40585419 -0.34012299 41.44500916 -0.33988953 40.45504761 C-0.32440567 39.41542877 -0.30892181 38.37580994 -0.29296875 37.3046875 C-0.28872391 36.24210724 -0.28447906 35.17952698 -0.28010559 34.08474731 C-0.26327389 30.68124354 -0.22561303 27.27832567 -0.1875 23.875 C-0.17245899 21.57162312 -0.15876958 19.26823698 -0.14648438 16.96484375 C-0.11335574 11.30969495 -0.06311197 5.65488932 0 0 Z " fill="#1B415E" transform="translate(421,538)"/>
<path d="M0 0 C0 17.49 0 34.98 0 53 C-4.0425 54.794375 -8.085 56.58875 -12.25 58.4375 C-13.51875977 59.00267334 -14.78751953 59.56784668 -16.09472656 60.15014648 C-17.09987305 60.59430908 -18.10501953 61.03847168 -19.140625 61.49609375 C-20.68024902 62.17949829 -20.68024902 62.17949829 -22.25097656 62.87670898 C-25 64 -25 64 -29 65 C-29 47.51 -29 30.02 -29 12 C-3.28571429 0 -3.28571429 0 0 0 Z " fill="#F9FAFB" transform="translate(526,257)"/>
<path d="M0 0 C0 17.16 0 34.32 0 52 C-4.41375 53.98 -8.8275 55.96 -13.375 58 C-14.76638184 58.62648438 -16.15776367 59.25296875 -17.59130859 59.8984375 C-19.2283374 60.62933594 -19.2283374 60.62933594 -20.8984375 61.375 C-22.01911621 61.87773437 -23.13979492 62.38046875 -24.29443359 62.8984375 C-27 64 -27 64 -29 64 C-29 46.51 -29 29.02 -29 11 C-24.58625 9.185 -20.1725 7.37 -15.625 5.5 C-14.23361816 4.92572266 -12.84223633 4.35144531 -11.40869141 3.75976562 C-10.31733887 3.31310547 -9.22598633 2.86644531 -8.1015625 2.40625 C-6.42054443 1.71499023 -6.42054443 1.71499023 -4.70556641 1.00976562 C-2 0 -2 0 0 0 Z " fill="#F8F9FA" transform="translate(526,344)"/>
<path d="M0 0 C0 17.16 0 34.32 0 52 C-4.24875 53.815 -8.4975 55.63 -12.875 57.5 C-14.2141748 58.07427734 -15.55334961 58.64855469 -16.93310547 59.24023438 C-17.98385254 59.68689453 -19.03459961 60.13355469 -20.1171875 60.59375 C-21.19597168 61.05458984 -22.27475586 61.51542969 -23.38623047 61.99023438 C-26 63 -26 63 -28 63 C-28 45.84 -28 28.68 -28 11 C-22.40149945 8.20074973 -16.94849811 5.61948378 -11.1875 3.25 C-10.43791016 2.93417969 -9.68832031 2.61835938 -8.91601562 2.29296875 C-3.36226664 0 -3.36226664 0 0 0 Z " fill="#FBFCFC" transform="translate(481,363)"/>
<path d="M0 0 C0 17.49 0 34.98 0 53 C-24 63 -24 63 -28 64 C-28 46.84 -28 29.68 -28 12 C-21.66150496 8.83075248 -15.47880316 5.83086336 -8.9375 3.1875 C-8.18017578 2.87619141 -7.42285156 2.56488281 -6.64257812 2.24414062 C-1.14320055 0 -1.14320055 0 0 0 Z " fill="#FBFCFC" transform="translate(481,277)"/>
<path d="M0 0 C0.74875397 0.48608231 1.49750793 0.97216461 2.26895142 1.47297668 C7.14063694 3.88528907 12.37592621 3.43931151 17.69677734 3.43237305 C18.86808197 3.4425647 20.0393866 3.45275635 21.2461853 3.46325684 C25.10948462 3.49339935 28.97253601 3.50265505 32.8359375 3.51171875 C35.5178097 3.52856449 38.19964901 3.54656931 40.88150024 3.56611633 C47.21364915 3.60972967 53.54577241 3.63830824 59.87802565 3.66143972 C67.08971182 3.68851919 74.30126509 3.73242893 81.51285625 3.77772844 C96.34182554 3.87050058 111.17085209 3.94221528 126 4 C126 4.33 126 4.66 126 5 C69.075 5.495 69.075 5.495 11 6 C11 6.33 11 6.66 11 7 C4.64285714 6.51098901 4.64285714 6.51098901 1.5625 4.0625 C0 2 0 2 0 0 Z " fill="#CED2D5" transform="translate(217,812)"/>
<path d="M0 0 C0.33 0 0.66 0 1 0 C1.02736707 1.39572052 1.04655989 2.79160221 1.0625 4.1875 C1.07410156 4.96480469 1.08570313 5.74210937 1.09765625 6.54296875 C1 9 1 9 0.51367188 11.29492188 C-0.02689038 14.14160903 -0.20805447 16.84374096 -0.31640625 19.73828125 C-0.35830078 20.80498047 -0.40019531 21.87167969 -0.44335938 22.97070312 C-0.50233398 24.62489258 -0.50233398 24.62489258 -0.5625 26.3125 C-0.60568359 27.43462891 -0.64886719 28.55675781 -0.69335938 29.71289062 C-0.79914787 32.47514569 -0.90123672 35.2374863 -1 38 C-1.99 38.495 -1.99 38.495 -3 39 C-3.0294191 35.52085157 -3.04693792 32.04173583 -3.0625 28.5625 C-3.07087891 27.58861328 -3.07925781 26.61472656 -3.08789062 25.61132812 C-3.11761307 16.72431851 -2.33834578 8.57393454 0 0 Z " fill="#F89937" transform="translate(612,384)"/>
<path d="M0 0 C0.66 0 1.32 0 2 0 C4.43046191 6.32837252 5.59060025 12.23784552 6 19 C5.34 18.67 4.68 18.34 4 18 C3.59270772 15.67843403 3.25561323 13.3431213 3 11 C2.34 11.66 1.68 12.32 1 13 C-1.42857143 4.57142857 -1.42857143 4.57142857 0 0 Z " fill="#E97322" transform="translate(807,381)"/>
<path d="M0 0 C0.33 0 0.66 0 1 0 C0.67 12.54 0.34 25.08 0 38 C-0.33 38 -0.66 38 -1 38 C-1.19400251 33.87457121 -1.37242414 29.74877602 -1.53710938 25.62207031 C-1.59511731 24.22150091 -1.65720738 22.82109386 -1.72363281 21.42089844 C-2.39772035 7.101645 -2.39772035 7.101645 0 0 Z " fill="#124865" transform="translate(577,512)"/>
<path d="M0 0 C0.33 0 0.66 0 1 0 C2.0712828 6.02596573 2.09945415 11.88909517 2 18 C1.01 17.67 0.02 17.34 -1 17 C-0.67 11.39 -0.34 5.78 0 0 Z " fill="#113450" transform="translate(456,587)"/>
<path d="M0 0 C1.65087847 0.59024148 3.29562407 1.19766006 4.9375 1.8125 C6.31228516 2.31716797 6.31228516 2.31716797 7.71484375 2.83203125 C10 4 10 4 11 7 C4.64285714 6.51098901 4.64285714 6.51098901 1.5625 4.0625 C0 2 0 2 0 0 Z " fill="#D4D7DA" transform="translate(217,812)"/>
<path d="M0 0 C0 3 0 3 -1.75 4.82421875 C-2.4925 5.43910156 -3.235 6.05398438 -4 6.6875 C-4.7425 7.31011719 -5.485 7.93273437 -6.25 8.57421875 C-6.8275 9.04472656 -7.405 9.51523437 -8 10 C-8.66 9.67 -9.32 9.34 -10 9 C-6.7 6.03 -3.4 3.06 0 0 Z " fill="#F78C2A" transform="translate(647,334)"/>
<path d="M0 0 C1.32 0.33 2.64 0.66 4 1 C3.01 2.485 3.01 2.485 2 4 C1.60986284 5.9896995 1.26797351 7.99019869 1 10 C0.67 10 0.34 10 0 10 C0 6.7 0 3.4 0 0 Z " fill="#FB8524" transform="translate(759,325)"/>
<path d="M0 0 C0.33 0 0.66 0 1 0 C1.08131463 1.43655854 1.13933559 2.8744483 1.1875 4.3125 C1.23970703 5.51326172 1.23970703 5.51326172 1.29296875 6.73828125 C0.93801608 9.47851584 0.10633718 10.29171079 -2 12 C-1.33333333 8 -0.66666667 4 0 0 Z " fill="#F8A34C" transform="translate(612,384)"/>
</svg>
